<svg width="80" height="104" viewBox="0 0 80 104" fill="none" xmlns="http://www.w3.org/2000/svg">
<g id="Best offer 1" clip-path="url(#clip0_106_1331)">
<g id="Layer_1-2">
<g id="Group">
<path id="Vector" fill-rule="evenodd" clip-rule="evenodd" d="M77.0596 95.697L67.0069 93.9439L62.0474 102.619C58.4549 106.979 56.1679 99.816 55.1194 97.3195L45.5499 79.5525C47.7752 78.799 50.4529 76.6139 53.2127 74.1777C58.7119 74.2882 63.8307 73.3338 67.6031 68.6572L78.699 89.5888L79.6704 91.6031C80.4259 94.2101 80.025 95.9381 77.075 95.697H77.0647H77.0596ZM40.0096 0.00029357C38.2673 -0.0298455 36.561 0.492566 35.1528 1.49218C33.241 2.67765 31.1184 5.00339 28.4768 6.47518C24.7712 8.54975 17.8947 5.68654 14.3691 10.8001C12.3185 13.7789 12.2208 16.1147 12.0666 18.4153C11.9536 21.4091 10.8229 24.2824 8.84422 26.5729C4.51684 32.1487 3.64828 35.8809 5.85822 39.7437C7.37435 42.3759 10.5711 43.8477 11.306 45.5154C12.8838 49.0718 11.1415 51.7542 13.3001 55.8983C14.6723 58.661 17.1598 60.7406 20.1663 61.6348C22.7617 62.4787 25.3623 61.2731 27.4335 62.127C31.0773 63.634 33.7703 67.11 36.7049 67.9941C38.8841 68.6572 41.2173 68.6572 43.3965 67.9941C46.2951 67.1502 48.9881 63.634 52.6268 62.1371C54.7031 61.2932 57.3037 62.4686 59.8939 61.6448C62.9056 60.7557 65.3982 58.6761 66.7705 55.9083C68.893 51.7592 67.1508 49.0868 68.744 45.5254C69.4892 43.8326 72.6859 42.3859 74.1969 39.7538C76.4223 35.8759 75.5229 32.1386 71.2006 26.583C68.6052 23.1974 68.1427 20.9118 67.9782 18.4253C67.8292 16.1147 67.7367 13.7789 65.6861 10.8102C62.1604 5.73175 55.2942 8.5598 51.5732 6.48522C48.9778 5.01343 46.8039 2.68267 44.8972 1.50725C43.4787 0.497589 41.7621 -0.0348687 40.0096 0.00029357ZM40.1124 14.3264C28.5641 14.3264 19.2001 23.4787 19.2001 34.7658C19.2001 46.0528 28.5641 55.2051 40.1124 55.2051C51.6606 55.2051 61.0195 46.0579 61.0246 34.7758C61.0246 23.4887 51.6606 14.3365 40.1124 14.3365V14.3264ZM2.92876 95.692L12.966 93.9389L17.9256 102.614C21.5283 106.974 23.8153 99.811 24.8535 97.3144L34.4744 79.5474C32.2491 78.794 29.5663 76.6089 26.8116 74.1726C21.3124 74.2831 16.1884 73.3287 12.4212 68.6522L1.32013 89.6089L0.333359 91.588C-0.422134 94.195 -0.0212631 95.923 2.92876 95.6819V95.692Z" fill="white"/>
<path id="Vector_2" fill-rule="evenodd" clip-rule="evenodd" d="M39.4964 22.8504L36.2123 30.3651L27.8813 31.0935C27.5164 31.1286 27.2491 31.4401 27.2748 31.7967C27.2903 31.9675 27.3725 32.1232 27.501 32.2388L33.7967 37.6136L31.9363 45.5753C31.8592 45.932 32.0956 46.2836 32.4605 46.3589C32.6301 46.3941 32.81 46.3589 32.959 46.2685L40.1131 42.0641L47.2928 46.2534C47.6063 46.4343 48.0123 46.3388 48.2025 46.0324C48.295 45.8868 48.3258 45.716 48.2796 45.5502L46.4191 37.5885L52.7149 32.2136C52.977 31.9826 53.0078 31.5857 52.7817 31.3145C52.6635 31.1839 52.4939 31.1035 52.314 31.0935L44.0087 30.3651L40.7247 22.8504C40.5808 22.5239 40.1953 22.3682 39.8612 22.5038C39.6968 22.5641 39.5683 22.6897 39.5066 22.8504H39.4964Z" fill="white"/>
</g>
</g>
</g>
<defs>
<clipPath id="clip0_106_1331">
<rect width="80" height="104" fill="white" transform="matrix(-1 0 0 1 80 0)"/>
</clipPath>
</defs>
</svg>
