<svg width="92" height="106" viewBox="0 0 92 106" fill="none" xmlns="http://www.w3.org/2000/svg">
<g id="CC 1" clip-path="url(#clip0_104_1309)">
<g id="Layer_1-2">
<path id="Vector" d="M79.081 73.3144H76.0065C76.0065 72.7569 76.0119 72.2923 76.0065 71.8277C75.8887 65.8206 76.044 59.7918 75.5834 53.8176C74.8281 44.1047 71.9946 35.0368 66.242 27.0948C65.5992 26.2039 64.8547 25.3895 64.0994 24.4657C63.9227 24.75 63.8048 24.903 63.7298 25.0724C60.5643 32.2491 55.133 36.8022 47.9501 39.3931C42.5885 41.328 36.9697 42.0276 31.4474 43.2192C27.9175 43.9844 24.3502 44.8043 20.9918 46.1106C15.3731 48.3025 12.6039 52.8228 12.1807 58.8899C12.1325 59.6005 12.0896 60.3056 12.0414 61.1036H8.09384C8.10455 64.0005 7.7189 66.8318 8.89193 69.5156C9.81857 71.6309 11.3612 73.1285 13.6216 73.5767C14.8803 73.8282 15.3409 74.5223 15.7587 75.6702C18.8011 83.9565 23.7557 90.6467 31.5598 94.8554C35.9467 97.2167 40.6924 97.8945 45.5934 97.8562C52.1495 97.807 58.7003 97.8453 65.2564 97.8453C65.5242 97.8453 65.792 97.8726 66.3544 97.8999C65.8617 98.3044 65.5617 98.5723 65.2403 98.8128C50.2427 110.22 29.3209 107.831 16.8675 93.3141C13.7876 89.723 11.3023 85.7547 9.34186 81.4312C9.15974 81.0267 8.8705 80.5731 8.50627 80.3654C2.9732 77.2389 0.241486 72.3196 0.13436 66.0229C-0.00490422 57.8295 -0.138812 49.6088 0.295049 41.4318C0.980657 28.5214 6.63692 18.0324 16.5675 10.0522C24.9234 3.34006 34.4683 -0.16904 45.1756 0.00586843C50.2587 0.0878568 55.2294 0.940536 59.5787 3.83746C61.0838 4.84318 62.2943 6.30804 63.6549 7.54333C63.9227 7.78383 64.2548 8.10085 64.5708 8.11725C72.3535 8.53812 77.5438 13.0038 81.4217 19.4207C84.9408 25.2364 86.9066 31.6534 87.5279 38.4147C87.9671 43.1973 87.8868 48.0292 87.9886 52.8392C88.0046 53.6536 88.1707 54.2002 88.8616 54.7194C90.7524 56.1351 91.8076 58.1356 91.9362 60.5133C92.0433 62.4537 92.0272 64.4159 91.8505 66.3508C91.6362 68.7394 90.3668 70.565 88.476 71.9752C88.1064 72.254 87.7261 72.7077 87.6297 73.1449C85.4336 83.0983 77.7473 89.6027 67.8703 89.6738C60.966 89.723 54.0617 89.6137 47.1574 89.5918C45.3631 89.5863 43.5687 89.7448 41.7797 89.6465C38.7319 89.4715 36.3859 87.1977 36.0806 84.3063C35.7699 81.3328 37.4196 78.343 40.2478 77.8347C42.6903 77.3919 45.2827 77.545 47.7734 77.7964C49.4071 77.9604 50.5372 79.2941 51.3782 80.7753C51.5764 81.1251 52.1227 81.4859 52.5084 81.4859C57.7361 81.5296 62.9639 81.6007 68.1917 81.4859C73.1677 81.3711 76.7296 78.8568 78.9257 74.3092C79.0114 74.1343 79.0757 73.943 79.1292 73.7516C79.1507 73.6861 79.1132 73.5986 79.0757 73.3253L79.081 73.3144Z" fill="white"/>
</g>
</g>
<defs>
<clipPath id="clip0_104_1309">
<rect width="92" height="106" fill="white"/>
</clipPath>
</defs>
</svg>
