<svg width="130" height="78" viewBox="0 0 130 78" fill="none" xmlns="http://www.w3.org/2000/svg">
<g id="Compare 1" clip-path="url(#clip0_104_1318)">
<g id="objects">
<g id="Group">
<g id="Group_2">
<path id="Vector" d="M75.1144 23.3901C74.5792 22.1619 73.549 20.3672 72.7295 18.9994C73.5527 20.443 74.273 21.9433 74.8828 23.4857C75.7737 25.7384 76.4278 28.0795 76.8362 30.4563C77.2446 32.8332 77.4063 35.2454 77.3223 37.6415C77.156 42.4347 75.9928 47.1567 73.9653 51.4192C72.9533 53.5515 71.7254 55.5695 70.3176 57.4364C68.9093 59.3044 67.3189 61.0191 65.5882 62.5625C62.1241 65.6477 58.0973 68.0064 53.818 69.5134C52.7486 69.891 51.6627 70.2145 50.5678 70.4882C50.0196 70.6248 49.4688 70.7468 48.9164 70.8559C48.7787 70.8855 48.6399 70.9104 48.5017 70.9353L48.0865 71.0111C47.9482 71.0381 47.809 71.0589 47.6702 71.0807L47.254 71.1467C45.0298 71.478 42.7853 71.6031 40.5565 71.5185C36.0983 71.3487 31.711 70.3454 27.6784 68.5896C25.6618 67.7125 23.7334 66.6479 21.9224 65.4151C20.1108 64.1812 18.4182 62.778 16.8627 61.231C15.3094 59.6819 13.9026 57.9947 12.6653 56.1906C11.428 54.3865 10.3614 52.4667 9.48139 50.4585C7.72095 46.4448 6.71684 42.0779 6.54836 37.642C6.46438 35.424 6.58957 33.1905 6.92392 30.9782C7.09136 29.8721 7.31409 28.7722 7.58533 27.6811C7.72199 27.1359 7.87221 26.5937 8.036 26.0552C8.19822 25.5161 8.37401 24.9792 8.56387 24.4479C10.0755 20.1907 12.4426 16.1842 15.5389 12.736C17.0875 11.0134 18.8083 9.43008 20.682 8.02691C22.5556 6.6253 24.5816 5.40285 26.7217 4.39383C31.001 2.37425 35.7415 1.21307 40.5554 1.04534C42.9616 0.960691 45.3845 1.12064 47.7719 1.52674C50.1588 1.93232 52.5103 2.58249 54.7735 3.46947C56.3368 4.08225 57.8578 4.80668 59.321 5.63602C57.9418 4.81551 56.1162 3.7743 54.8706 3.23578C50.3805 1.29097 45.5029 0.192635 40.5565 0.0228215C38.0835 -0.0618256 35.5938 0.0866964 33.1287 0.465272L32.6671 0.540052C32.5127 0.564459 32.3588 0.588867 32.2055 0.619506L31.7449 0.705192C31.5915 0.733754 31.4382 0.762316 31.2853 0.796071C30.6735 0.920185 30.0627 1.05832 29.456 1.21204C28.2428 1.52102 27.0399 1.8861 25.8559 2.31037C23.4877 3.15892 21.19 4.23908 19.0097 5.54046C16.8288 6.83977 14.7658 8.35979 12.8614 10.0699C10.9602 11.782 9.21119 13.6868 7.66409 15.7594C6.89106 16.7954 6.16654 17.8719 5.4994 18.9853C4.83069 20.0993 4.21727 21.248 3.66384 22.4289C1.44594 27.1483 0.185727 32.3596 0.0193322 37.6415C-0.0646475 40.2816 0.121568 42.9389 0.57798 45.5562C1.03387 48.1735 1.76048 50.7514 2.74685 53.2321C3.73217 55.7134 4.97831 58.0975 6.45656 60.3295C7.93376 62.5625 9.64309 64.6429 11.5386 66.5305C13.4357 68.4172 15.5279 70.1153 17.7709 71.585C20.0138 73.0546 22.408 74.2932 24.9003 75.2726C27.392 76.253 29.9808 76.9754 32.6092 77.4277C35.2371 77.8805 37.9046 78.0644 40.556 77.9797C45.8587 77.8125 51.0894 76.5563 55.8272 74.3487C58.1969 73.2467 60.443 71.9075 62.5232 70.3688C64.6028 68.8295 66.5156 67.0904 68.2348 65.1985C69.953 63.3051 71.4792 61.2523 72.7848 59.0826C73.4384 57.9983 74.0351 56.8839 74.5781 55.7471C75.1196 54.6098 75.6031 53.4487 76.0308 52.2709C76.2442 51.682 76.4429 51.0879 76.6255 50.4907C76.8107 49.8935 76.9797 49.2926 77.1346 48.6887C77.2895 48.0847 77.4277 47.4777 77.5534 46.868C77.5873 46.7164 77.6165 46.5637 77.6447 46.4105L77.7313 45.9525C77.7616 45.7998 77.7855 45.6466 77.8111 45.4934L77.8862 45.0338C78.2675 42.5801 78.4177 40.103 78.3338 37.6404C78.1653 32.7164 77.0647 27.8603 75.1128 23.3891L75.1144 23.3901Z" fill="white"/>
<path id="Vector_2" d="M25.6717 34.8714L17.6853 42.8225L32.6352 55.9652L36.6631 59.5063L39.2623 55.5217L71.2132 6.53125L35.7665 46.2531L25.6717 34.8714Z" fill="white"/>
</g>
<g id="Group_3">
<path id="Vector_3" d="M129.986 40.5148C129.886 37.5895 129.232 34.7048 128.073 32.0485C127.755 31.3189 127.144 30.2527 126.656 29.44C127.145 30.2974 127.573 31.1891 127.935 32.1051C128.464 33.4434 128.853 34.8341 129.096 36.2461C129.339 37.6581 129.435 39.0914 129.385 40.5148C129.286 43.3622 128.595 46.1675 127.391 48.6996C126.79 49.9662 126.06 51.1653 125.224 52.274C124.387 53.3838 123.442 54.4026 122.415 55.3192C120.357 57.1518 117.965 58.5535 115.422 59.4482C114.787 59.6726 114.142 59.8647 113.491 60.0273C113.166 60.1083 112.839 60.181 112.51 60.2459C112.428 60.2635 112.346 60.2781 112.264 60.2931L112.017 60.3383C111.935 60.3544 111.853 60.3669 111.77 60.3799L111.523 60.4188C110.202 60.6156 108.868 60.6899 107.544 60.6395C104.896 60.5388 102.289 59.9426 99.8935 58.8993C98.6959 58.3784 97.5499 57.7459 96.4744 57.0132C95.3983 56.2804 94.3926 55.4464 93.4688 54.5278C92.5461 53.6076 91.7105 52.6053 90.9755 51.5335C90.2406 50.4616 89.6068 49.3212 89.0842 48.1284C88.0383 45.7437 87.4421 43.1498 87.342 40.5148C87.2919 39.1973 87.3665 37.8705 87.5652 36.5561C87.6649 35.8987 87.7968 35.2454 87.958 34.5978C88.0394 34.2737 88.128 33.9518 88.2256 33.6319C88.3221 33.3115 88.4264 32.9926 88.5391 32.6769C89.4373 30.1478 90.8436 27.7679 92.6828 25.7192C93.6029 24.6956 94.6253 23.7552 95.7384 22.9217C96.8515 22.0887 98.0549 21.3627 99.3265 20.7634C101.868 19.5633 104.685 18.8742 107.545 18.7745C108.974 18.7241 110.413 18.8192 111.832 19.0606C113.249 19.3016 114.646 19.688 115.991 20.2145C116.92 20.5786 117.823 21.0091 118.692 21.5014C117.873 21.0143 116.789 20.3953 116.048 20.0754C113.38 18.9204 110.483 18.2682 107.545 18.1674C106.076 18.1171 104.596 18.2053 103.132 18.4302L102.858 18.4749C102.766 18.4894 102.675 18.5039 102.584 18.5221L102.31 18.573C102.219 18.5896 102.128 18.6073 102.037 18.627C101.674 18.7008 101.311 18.7828 100.951 18.8742C100.23 19.0575 99.5154 19.2746 98.8122 19.5265C97.4054 20.0307 96.0404 20.672 94.7452 21.4453C93.4495 22.2175 92.2237 23.1201 91.0929 24.1358C89.9636 25.1531 88.9245 26.2847 88.0055 27.5155C87.5464 28.1309 87.1161 28.7701 86.7197 29.4322C86.3227 30.0938 85.9581 30.7767 85.629 31.4778C84.3109 34.2815 83.5618 37.3771 83.4633 40.5148C83.4132 42.0831 83.5238 43.6618 83.795 45.2166C84.0657 46.7714 84.4976 48.3028 85.0834 49.7766C85.6686 51.251 86.4088 52.6671 87.2872 53.9929C88.1651 55.3192 89.1801 56.5552 90.3063 57.6769C91.433 58.7975 92.676 59.8065 94.0087 60.6795C95.3409 61.5525 96.7633 62.2883 98.2442 62.8705C99.7245 63.4531 101.262 63.8821 102.824 64.1506C104.385 64.4196 105.97 64.5286 107.545 64.4788C110.695 64.3796 113.802 63.6333 116.616 62.3216C118.024 61.6667 119.359 60.8711 120.594 59.9571C121.83 59.0426 122.966 58.0092 123.987 56.8854C125.008 55.7606 125.915 54.5413 126.69 53.2524C127.078 52.6084 127.433 51.9463 127.755 51.2707C128.077 50.5951 128.365 49.9054 128.618 49.2054C128.745 48.8554 128.863 48.5028 128.971 48.1476C129.081 47.7929 129.182 47.4361 129.274 47.0773C129.366 46.7184 129.448 46.3575 129.523 45.9956C129.543 45.9057 129.56 45.8148 129.577 45.724L129.629 45.4518C129.646 45.361 129.661 45.2701 129.676 45.1792L129.721 44.9061C129.947 43.4484 130.037 41.9766 129.987 40.5143L129.986 40.5148Z" fill="white"/>
<path id="Vector_4" d="M110.701 35.733L102.012 23.9338L97.0257 28.4035L107.747 38.4854L97.1483 48.3636L102.134 52.8333L110.528 41.7882L118.438 52.6111L123.424 48.1409L113.081 38.4288L125.878 21.5881L110.701 35.733Z" fill="white"/>
</g>
</g>
</g>
</g>
<defs>
<clipPath id="clip0_104_1318">
<rect width="130" height="78" fill="white"/>
</clipPath>
</defs>
</svg>
