<svg width="220" height="45" viewBox="0 0 220 45" fill="none" xmlns="http://www.w3.org/2000/svg">
<g id="Logo Comp 1" clip-path="url(#clip0_76_1231)">
<g id="Layer_1-2">
<g id="Group">
<g id="Group_2">
<path id="Vector" d="M17.3194 29.73C19.0165 29.73 20.4636 30.3337 21.6682 31.5489C22.8728 32.7641 23.4713 34.2239 23.4713 35.9358V38.7865C23.4713 40.4985 22.8728 41.9582 21.6682 43.1734C20.4636 44.3886 19.0165 44.9924 17.3194 44.9924H17.2133C15.5163 44.9924 14.0692 44.3886 12.8646 43.1734C11.6599 41.9582 11.0614 40.4985 11.0614 38.7865V35.9358C11.0614 34.2239 11.6599 32.7641 12.8646 31.5489C14.0692 30.3337 15.5163 29.73 17.2133 29.73H17.3194ZM20.706 35.9358C20.706 34.9881 20.3726 34.1857 19.6984 33.5207C19.0392 32.8558 18.2437 32.5196 17.3194 32.5196H17.2133C16.2739 32.5196 15.4784 32.8558 14.8192 33.5207C14.1601 34.1857 13.8267 34.9958 13.8267 35.9358V38.7865C13.8267 39.7342 14.1601 40.5367 14.8192 41.2016C15.4784 41.8665 16.2815 42.2028 17.2133 42.2028H17.3194C18.2437 42.2028 19.0392 41.8665 19.6984 41.2016C20.3726 40.5367 20.706 39.7266 20.706 38.7865V35.9358Z" fill="white"/>
<path id="Vector_2" d="M32.6083 26.7417C31.7067 26.7417 30.934 27.055 30.2824 27.6817C29.6308 28.3008 29.2823 29.0574 29.2293 29.9516H31.4491C31.8355 29.9516 32.1613 30.0892 32.4265 30.3719C32.6917 30.6394 32.828 30.9681 32.828 31.3578C32.828 31.7476 32.6917 32.0763 32.4265 32.3437C32.1613 32.6189 31.8355 32.7641 31.4491 32.7641H29.2141V43.6014C29.2141 43.9912 29.0778 44.3198 28.8126 44.6026C28.5399 44.8701 28.2141 45.0076 27.8353 45.0076C27.4564 45.0076 27.1231 44.8701 26.8428 44.6026C26.5776 44.3274 26.4412 43.9912 26.4412 43.6014V30.1656C26.4412 28.4536 27.0397 26.9939 28.2444 25.7787C29.449 24.5635 30.8961 23.9597 32.5932 23.9597H32.6083C32.9947 23.9597 33.3205 24.0973 33.5857 24.3648C33.8584 24.6399 34.0023 24.9686 34.0023 25.3507C34.0023 25.7328 33.866 26.0691 33.5857 26.3519C33.3053 26.6347 32.9947 26.757 32.6083 26.757H32.5932L32.6083 26.7417ZM40.6695 26.7417C39.7679 26.7417 38.9951 27.055 38.3436 27.6817C37.692 28.3008 37.3435 29.0574 37.2905 29.9516H39.5103C39.8967 29.9516 40.2225 30.0892 40.4876 30.3719C40.7528 30.6394 40.8892 30.9681 40.8892 31.3578C40.8892 31.7476 40.7528 32.0763 40.4876 32.3437C40.2225 32.6189 39.8967 32.7641 39.5103 32.7641H37.2753V43.6014C37.2753 43.9912 37.1389 44.3198 36.8738 44.6026C36.601 44.8701 36.2752 45.0076 35.8964 45.0076C35.5176 45.0076 35.1842 44.8701 34.9039 44.6026C34.6388 44.3274 34.5024 43.9912 34.5024 43.6014V30.1656C34.5024 28.4536 35.1009 26.9939 36.3055 25.7787C37.5102 24.5635 38.9572 23.9597 40.6543 23.9597H40.6695C41.0559 23.9597 41.3816 24.0973 41.6468 24.3648C41.9196 24.6399 42.0635 24.9686 42.0635 25.3507C42.0635 25.7328 41.9271 26.0691 41.6468 26.3519C41.3665 26.6347 41.0559 26.757 40.6695 26.757H40.6543L40.6695 26.7417Z" fill="white"/>
<path id="Vector_3" d="M51.0793 29.7682C51.4657 29.7682 51.7915 29.9057 52.0567 30.1885C52.3294 30.456 52.4734 30.7847 52.4734 31.1744C52.4734 31.5642 52.337 31.8928 52.0567 32.1603C51.7915 32.4278 51.4657 32.5654 51.0793 32.5654H51.0642C50.1247 32.5654 49.3292 32.9017 48.6701 33.5819C48.0109 34.2468 47.6776 35.0493 47.6776 35.9817V43.5938C47.6776 43.9835 47.5412 44.3122 47.276 44.5949C47.0033 44.8624 46.6775 45 46.2987 45C45.9199 45 45.5865 44.8624 45.3062 44.5949C45.041 44.3198 44.9047 43.9835 44.9047 43.5938V31.1439C44.9047 30.7541 45.041 30.4254 45.3062 30.158C45.5714 29.8905 45.9123 29.7376 46.2987 29.7376C46.6245 29.7376 46.9124 29.8446 47.1548 30.051C47.4048 30.2497 47.5639 30.5095 47.6397 30.8305C48.6625 30.1274 49.8065 29.7682 51.0566 29.7682H51.0718H51.0793Z" fill="white"/>
<path id="Vector_4" d="M66.8076 35.9817C66.8076 36.4861 66.6789 36.9599 66.4213 37.3879C65.8909 38.3127 65.0954 38.7789 64.0423 38.7789L57.163 38.7942C57.163 39.7419 57.4964 40.5443 58.1555 41.2093C58.8147 41.8742 59.6178 42.2104 60.5496 42.2104H60.6557C61.7997 42.2104 62.7089 41.7366 63.3907 40.7889C63.7847 40.2386 64.2999 40.0858 64.9439 40.3151C65.3909 40.4679 65.6788 40.766 65.8152 41.2093C65.9515 41.6678 65.8833 42.0882 65.6106 42.4627C64.3757 44.1517 62.724 45 60.6557 45H60.5496C58.8601 45 57.4206 44.3963 56.216 43.1964C55.019 42.0041 54.4129 40.552 54.3977 38.8553V35.9893C54.3977 34.2774 54.9962 32.8176 56.2009 31.6177C57.4055 30.4025 58.8526 29.7988 60.5496 29.7988H60.6557C62.3755 29.7988 63.8302 30.4178 65.0348 31.6483C65.603 32.2368 66.0424 32.9093 66.3531 33.666C66.5198 34.071 66.641 34.499 66.7092 34.9346C66.7773 35.2862 66.8152 35.6378 66.8152 35.997L66.8076 35.9817ZM57.163 35.997H64.0272C64.0196 35.0646 63.6862 34.2544 63.0347 33.5819C62.3604 32.917 61.5724 32.5807 60.6557 32.5807H60.5496C59.6102 32.5807 58.8147 32.917 58.1555 33.5819C57.4964 34.2468 57.163 35.0493 57.163 35.9817V35.997Z" fill="white"/>
<path id="Vector_5" d="M74.5355 35.5002C76.2098 35.5002 77.5736 36.0963 78.6191 37.2886C79.6722 38.5114 79.998 39.8947 79.5813 41.4385C79.3085 42.4856 78.6797 43.3416 77.7175 44.0065C76.7629 44.6637 75.6871 44.9924 74.49 44.9924H74.4597C73.4218 44.9924 72.4747 44.7402 71.6186 44.2281C70.7776 43.7237 70.1564 43.0511 69.7397 42.2257C69.5048 41.7672 69.5351 41.3239 69.8306 40.8806C70.1337 40.4526 70.5655 40.2386 71.1186 40.2386C71.7626 40.2386 72.2323 40.5214 72.5429 41.087C72.9293 41.8207 73.5657 42.1952 74.4673 42.1952H74.5431C75.187 42.1952 75.725 41.9735 76.1568 41.5379C76.5811 41.087 76.7553 40.5749 76.672 39.9864C76.6038 39.4973 76.3538 39.0922 75.9144 38.7636C75.4977 38.4579 75.0128 38.2974 74.4521 38.2898C72.9217 38.2592 71.6944 37.686 70.7701 36.5702C69.823 35.439 69.5579 34.1627 69.9821 32.7488C70.2549 31.8317 70.8231 31.0827 71.6868 30.4942C72.5429 29.9287 73.5051 29.6459 74.5734 29.6459H74.6188C76.475 29.6459 77.8539 30.3949 78.763 31.8852C79.0509 32.3514 79.0434 32.8176 78.7479 33.2762C78.4524 33.7347 78.013 33.964 77.4296 33.964C76.8462 33.964 76.3917 33.7118 76.0659 33.1997C75.7401 32.6877 75.2552 32.4355 74.6188 32.4355H74.5885C74.187 32.4355 73.8233 32.5425 73.5051 32.7641C73.1793 32.9934 72.9748 33.2838 72.899 33.643C72.7929 34.1321 72.9066 34.5601 73.2551 34.927C73.5884 35.3091 74.0203 35.4925 74.5431 35.4925L74.5355 35.5002Z" fill="white"/>
<path id="Vector_6" d="M89.0289 27.9492C88.7259 28.2549 88.3546 28.4154 87.9304 28.4154C87.5061 28.4154 87.1273 28.2626 86.8242 27.9492C86.5212 27.6435 86.3621 27.269 86.3621 26.841C86.3621 26.413 86.5136 26.0309 86.8242 25.7252C87.1348 25.4195 87.4985 25.259 87.9304 25.259C88.3622 25.259 88.7183 25.4119 89.0289 25.7252C89.332 26.0309 89.4911 26.4054 89.4911 26.841C89.4911 27.2767 89.3395 27.6359 89.0289 27.9492ZM86.9454 44.5949C86.6803 44.3198 86.5439 43.9835 86.5439 43.5938V31.1591C86.5439 30.7694 86.6803 30.4407 86.9454 30.1732C87.2182 29.9057 87.5515 29.7682 87.9379 29.7682C88.3243 29.7682 88.6349 29.9057 88.9153 30.1732C89.1804 30.4407 89.3168 30.7694 89.3168 31.1591V43.5938C89.3168 43.9835 89.1804 44.3122 88.9153 44.5949C88.6425 44.8624 88.3167 45 87.9379 45C87.5591 45 87.2258 44.8624 86.9454 44.5949Z" fill="white"/>
<path id="Vector_7" d="M99.166 29.73C100.863 29.73 102.31 30.3337 103.515 31.5489C104.719 32.7641 105.318 34.2238 105.318 35.9358V43.5938C105.318 43.9835 105.182 44.3122 104.901 44.5949C104.621 44.8777 104.31 45 103.924 45C103.537 45 103.212 44.8624 102.947 44.5949C102.681 44.3198 102.545 43.9835 102.545 43.5938V35.9358C102.545 34.9881 102.212 34.1856 101.537 33.5207C100.878 32.8558 100.083 32.5195 99.1584 32.5195H99.0523C98.1129 32.5195 97.3174 32.8558 96.6582 33.5207C95.9991 34.1856 95.6657 34.9958 95.6657 35.9358V43.5938C95.6657 43.9835 95.5294 44.3122 95.2642 44.5949C94.9914 44.8624 94.6657 45 94.2869 45C93.908 45 93.5747 44.8624 93.2944 44.5949C93.0292 44.3198 92.8928 43.9835 92.8928 43.5938V31.1133C92.8928 30.7388 93.0292 30.4102 93.2944 30.1274C93.5671 29.8599 93.9005 29.7223 94.2869 29.7223C94.999 29.7223 95.4385 30.0739 95.6203 30.7847C96.6582 30.0815 97.8023 29.7223 99.0523 29.7223H99.1584L99.166 29.73Z" fill="white"/>
<path id="Vector_8" d="M114.326 42.2028C114.712 42.2028 115.038 42.3404 115.303 42.6079C115.576 42.883 115.72 43.2116 115.72 43.5938C115.72 43.9759 115.584 44.3122 115.303 44.5949C115.023 44.8777 114.712 45 114.326 45H114.311C112.614 45 111.167 44.3962 109.962 43.1811C108.758 41.9659 108.159 40.5061 108.159 38.7942V25.3431C108.159 24.9686 108.295 24.64 108.561 24.3572C108.833 24.0897 109.167 23.9521 109.553 23.9521C109.939 23.9521 110.25 24.0897 110.53 24.3572C110.796 24.6323 110.932 24.9609 110.932 25.3431V29.9669H113.167C113.553 29.9669 113.879 30.1045 114.144 30.372C114.417 30.6394 114.561 30.9681 114.561 31.3579C114.561 31.7476 114.425 32.0763 114.144 32.3438C113.879 32.6189 113.553 32.7641 113.167 32.7641H110.932V38.7942C110.932 39.7419 111.265 40.5443 111.924 41.2092C112.584 41.8742 113.387 42.2104 114.319 42.2104H114.334L114.326 42.2028Z" fill="white"/>
<path id="Vector_9" d="M130.661 35.9817C130.661 36.4861 130.532 36.9599 130.274 37.3879C129.744 38.3127 128.948 38.7789 127.895 38.7789L121.016 38.7942C121.016 39.7419 121.349 40.5443 122.008 41.2093C122.668 41.8742 123.471 42.2104 124.403 42.2104H124.509C125.653 42.2104 126.562 41.7366 127.244 40.7889C127.638 40.2386 128.153 40.0858 128.797 40.3151C129.244 40.4679 129.532 40.766 129.668 41.2093C129.804 41.6678 129.736 42.0882 129.464 42.4627C128.229 44.1517 126.577 45 124.509 45H124.403C122.713 45 121.274 44.3963 120.069 43.1964C118.872 42.0041 118.266 40.552 118.251 38.8553V35.9893C118.251 34.2774 118.849 32.8176 120.054 31.6177C121.258 30.4025 122.705 29.7988 124.403 29.7988H124.509C126.228 29.7988 127.683 30.4178 128.888 31.6483C129.456 32.2368 129.895 32.9093 130.206 33.666C130.373 34.071 130.494 34.499 130.562 34.9346C130.63 35.2862 130.668 35.6378 130.668 35.997L130.661 35.9817ZM121.016 35.997H127.88C127.872 35.0646 127.539 34.2544 126.888 33.5819C126.213 32.917 125.425 32.5807 124.509 32.5807H124.403C123.463 32.5807 122.668 32.917 122.008 33.5819C121.349 34.2468 121.016 35.0493 121.016 35.9817V35.997Z" fill="white"/>
<path id="Vector_10" d="M139.957 29.7682C140.343 29.7682 140.669 29.9057 140.934 30.1885C141.207 30.456 141.351 30.7847 141.351 31.1744C141.351 31.5642 141.214 31.8928 140.934 32.1603C140.669 32.4278 140.343 32.5654 139.957 32.5654H139.942C139.002 32.5654 138.207 32.9017 137.547 33.5819C136.888 34.2468 136.555 35.0493 136.555 35.9817V43.5938C136.555 43.9835 136.419 44.3122 136.153 44.5949C135.881 44.8624 135.555 45 135.176 45C134.797 45 134.464 44.8624 134.184 44.5949C133.918 44.3198 133.782 43.9835 133.782 43.5938V31.1439C133.782 30.7541 133.918 30.4254 134.184 30.158C134.449 29.8905 134.79 29.7376 135.176 29.7376C135.502 29.7376 135.79 29.8446 136.032 30.051C136.282 30.2497 136.441 30.5095 136.517 30.8305C137.54 30.1274 138.684 29.7682 139.934 29.7682H139.949H139.957Z" fill="white"/>
<path id="Vector_11" d="M150.435 29.73C152.132 29.73 153.579 30.3337 154.783 31.5489C155.988 32.7641 156.587 34.2238 156.587 35.9358V43.5938C156.587 43.9835 156.45 44.3122 156.17 44.5949C155.89 44.8777 155.579 45 155.193 45C154.806 45 154.48 44.8624 154.215 44.5949C153.95 44.3198 153.814 43.9835 153.814 43.5938V35.9358C153.814 34.9881 153.48 34.1856 152.806 33.5207C152.147 32.8558 151.351 32.5195 150.427 32.5195H150.321C149.382 32.5195 148.586 32.8558 147.927 33.5207C147.268 34.1856 146.934 34.9958 146.934 35.9358V43.5938C146.934 43.9835 146.798 44.3122 146.533 44.5949C146.26 44.8624 145.934 45 145.556 45C145.177 45 144.843 44.8624 144.563 44.5949C144.298 44.3198 144.161 43.9835 144.161 43.5938V31.1133C144.161 30.7388 144.298 30.4102 144.563 30.1274C144.836 29.8599 145.169 29.7223 145.556 29.7223C146.268 29.7223 146.707 30.0739 146.889 30.7847C147.927 30.0815 149.071 29.7223 150.321 29.7223H150.427L150.435 29.73Z" fill="white"/>
<path id="Vector_12" d="M171.838 35.9817C171.838 36.4861 171.709 36.9599 171.451 37.3879C170.921 38.3127 170.125 38.7789 169.072 38.7789L162.193 38.7942C162.193 39.7419 162.526 40.5443 163.186 41.2093C163.845 41.8742 164.648 42.2104 165.58 42.2104H165.686C166.83 42.2104 167.739 41.7366 168.421 40.7889C168.815 40.2386 169.33 40.0858 169.974 40.3151C170.421 40.4679 170.709 40.766 170.845 41.2093C170.982 41.6678 170.913 42.0882 170.641 42.4627C169.406 44.1517 167.754 45 165.686 45H165.58C163.89 45 162.451 44.3963 161.246 43.1964C160.049 42.0041 159.443 40.552 159.428 38.8553V35.9893C159.428 34.2774 160.026 32.8176 161.231 31.6177C162.435 30.4025 163.883 29.7988 165.58 29.7988H165.686C167.406 29.7988 168.86 30.4178 170.065 31.6483C170.633 32.2368 171.072 32.9093 171.383 33.666C171.55 34.071 171.671 34.499 171.739 34.9346C171.807 35.2862 171.845 35.6378 171.845 35.997L171.838 35.9817ZM162.193 35.997H169.057C169.05 35.0646 168.716 34.2544 168.065 33.5819C167.39 32.917 166.602 32.5807 165.686 32.5807H165.58C164.64 32.5807 163.845 32.917 163.186 33.5819C162.526 34.2468 162.193 35.0493 162.193 35.9817V35.997Z" fill="white"/>
<path id="Vector_13" d="M180.838 42.2028C181.225 42.2028 181.55 42.3404 181.816 42.6079C182.088 42.883 182.232 43.2116 182.232 43.5938C182.232 43.9759 182.096 44.3122 181.816 44.5949C181.535 44.8777 181.225 45 180.838 45H180.823C179.126 45 177.679 44.3962 176.474 43.1811C175.27 41.9659 174.671 40.5061 174.671 38.7942V25.3431C174.671 24.9686 174.808 24.64 175.073 24.3572C175.345 24.0897 175.679 23.9521 176.065 23.9521C176.452 23.9521 176.762 24.0897 177.043 24.3572C177.308 24.6323 177.444 24.9609 177.444 25.3431V29.9669H179.679C180.065 29.9669 180.391 30.1045 180.656 30.372C180.929 30.6394 181.073 30.9681 181.073 31.3579C181.073 31.7476 180.937 32.0763 180.656 32.3438C180.391 32.6189 180.065 32.7641 179.679 32.7641H177.444V38.7942C177.444 39.7419 177.777 40.5443 178.437 41.2092C179.096 41.8742 179.899 42.2104 180.831 42.2104H180.846L180.838 42.2028Z" fill="white"/>
<path id="Vector_14" d="M185.854 44.7096C185.664 44.9007 185.437 45 185.172 45C184.907 45 184.672 44.9007 184.475 44.7096C184.285 44.5185 184.187 44.2816 184.187 44.0065C184.187 43.7313 184.285 43.5097 184.475 43.3186C184.664 43.1276 184.899 43.0282 185.172 43.0282C185.445 43.0282 185.664 43.1276 185.854 43.3186C186.043 43.5097 186.142 43.739 186.142 44.0065C186.142 44.274 186.043 44.5109 185.854 44.7096Z" fill="white"/>
<path id="Vector_15" d="M193.771 41.4614C194.059 41.4614 194.294 41.5837 194.476 41.8283C194.65 42.0652 194.688 42.3251 194.597 42.6002C194.362 43.3033 193.945 43.8765 193.339 44.3198C192.725 44.7707 192.044 45 191.286 45H191.233C190.263 45 189.437 44.6561 188.755 43.9682C188.074 43.2804 187.733 42.4473 187.733 41.4691V39.0158C187.733 38.0452 188.074 37.2121 188.755 36.5243C189.437 35.8364 190.263 35.4925 191.233 35.4925H191.286C192.044 35.4925 192.725 35.7142 193.339 36.1651C193.945 36.6084 194.362 37.1816 194.597 37.8923C194.688 38.1675 194.65 38.4273 194.476 38.6642C194.294 38.9012 194.059 39.0158 193.771 39.0158C193.354 39.0158 193.089 38.8247 192.96 38.4502C192.847 38.091 192.627 37.8006 192.324 37.5713C192.013 37.3497 191.672 37.2351 191.286 37.2351H191.233C190.74 37.2351 190.324 37.4108 189.975 37.7548C189.627 38.0987 189.46 38.5267 189.46 39.0158V41.4691C189.46 41.9659 189.634 42.3862 189.975 42.7378C190.324 43.0893 190.74 43.2575 191.233 43.2575H191.286C191.665 43.2575 192.013 43.1428 192.324 42.9136C192.635 42.6919 192.847 42.4015 192.96 42.0423C193.089 41.6602 193.362 41.4614 193.771 41.4614Z" fill="white"/>
<path id="Vector_16" d="M200.415 35.4543C201.476 35.4543 202.385 35.8364 203.135 36.5931C203.885 37.3497 204.264 38.2668 204.264 39.3368V41.1175C204.264 42.1875 203.885 43.1046 203.135 43.8612C202.385 44.6179 201.476 45 200.415 45H200.347C199.286 45 198.377 44.6179 197.627 43.8612C196.877 43.1046 196.498 42.1875 196.498 41.1175V39.3368C196.498 38.2668 196.877 37.3497 197.627 36.5931C198.377 35.8364 199.286 35.4543 200.347 35.4543H200.415ZM202.537 39.3368C202.537 38.7483 202.325 38.2439 201.908 37.8235C201.491 37.4108 200.999 37.1968 200.415 37.1968H200.347C199.764 37.1968 199.264 37.4032 198.847 37.8235C198.43 38.2439 198.226 38.7407 198.226 39.3368V41.1175C198.226 41.706 198.43 42.2104 198.847 42.6308C199.256 43.0511 199.756 43.2575 200.347 43.2575H200.415C200.991 43.2575 201.491 43.0511 201.908 42.6308C202.325 42.2181 202.537 41.7137 202.537 41.1175V39.3368Z" fill="white"/>
<path id="Vector_17" d="M216.159 35.4543C217.22 35.4543 218.129 35.8364 218.879 36.5931C219.629 37.3497 220.008 38.2668 220.008 39.3368V44.1211C220.008 44.3657 219.924 44.572 219.75 44.7402C219.583 44.9159 219.379 45 219.136 45C218.894 45 218.689 44.9159 218.523 44.7402C218.356 44.572 218.273 44.3657 218.273 44.1211V39.3368C218.273 38.7483 218.068 38.2439 217.651 37.8235C217.235 37.4108 216.742 37.1968 216.151 37.1968H216.083C215.5 37.1968 215 37.4032 214.583 37.8235C214.166 38.2439 213.962 38.7407 213.962 39.3368V44.1211C213.962 44.3657 213.878 44.572 213.704 44.7478C213.53 44.9236 213.333 45 213.09 45C212.848 45 212.643 44.9159 212.477 44.7478C212.31 44.572 212.227 44.3657 212.227 44.1211V39.3368C212.227 38.7483 212.022 38.2439 211.606 37.8235C211.189 37.4108 210.696 37.1968 210.105 37.1968H210.037C209.454 37.1968 208.954 37.4032 208.537 37.8235C208.12 38.2439 207.916 38.7407 207.916 39.3368V44.1211C207.916 44.3733 207.825 44.5873 207.651 44.7554C207.469 44.9312 207.257 45.0076 207.014 45C206.779 44.9847 206.582 44.893 206.423 44.7096C206.272 44.5262 206.188 44.3198 206.188 44.0752V36.4326C206.188 36.1574 206.295 35.9358 206.507 35.76C206.719 35.5842 206.954 35.5231 207.226 35.5766C207.537 35.6377 207.749 35.8288 207.863 36.1345L207.916 36.0963C208.56 35.6683 209.264 35.4543 210.037 35.4543H210.105C211.318 35.4543 212.31 35.9282 213.083 36.8835H213.098C213.098 36.8835 213.098 36.8606 213.113 36.8529L213.121 36.8376C213.121 36.8376 213.128 36.8376 213.128 36.83L213.143 36.8147C213.916 35.9129 214.886 35.462 216.06 35.462H216.129L216.159 35.4543Z" fill="white"/>
</g>
<g id="Group_3">
<path id="Vector_18" d="M188.899 13.9096C188.46 13.9096 188.036 13.7109 187.755 13.367C187.581 13.153 183.604 8.44513 176.088 8.44513C168.572 8.44513 164.587 13.1683 164.42 13.367C163.905 14.0013 162.973 14.0931 162.337 13.5734C161.708 13.0537 161.617 12.1136 162.132 11.4716C162.329 11.2271 167.11 5.45685 176.08 5.45685C185.051 5.45685 189.831 11.2271 190.028 11.4716C190.543 12.106 190.453 13.046 189.824 13.5657C189.559 13.7874 189.225 13.902 188.884 13.902L188.899 13.9096Z" fill="white"/>
<path id="Vector_19" d="M185.452 17.8838C185.013 17.8838 184.596 17.6851 184.316 17.3488C182.172 15.0942 179.194 13.8485 176.095 13.9096C172.997 13.8408 170.012 15.0866 167.875 17.3488C167.337 17.9679 166.398 18.0214 165.792 17.4787C165.208 16.959 165.125 16.0725 165.602 15.4534C168.307 12.511 172.125 10.8678 176.103 10.929C180.081 10.8678 183.899 12.511 186.604 15.4534C187.119 16.0878 187.028 17.0278 186.399 17.5475C186.134 17.7615 185.808 17.8838 185.467 17.8838H185.452Z" fill="white"/>
<path id="Vector_20" d="M181.513 21.858C181.058 21.858 180.626 21.644 180.346 21.2772C178.232 18.9079 174.611 18.7245 172.262 20.8568C172.118 20.9867 171.974 21.1319 171.845 21.2772C171.338 21.9268 170.413 22.0338 169.769 21.5294C169.14 21.0249 169.019 20.1078 169.504 19.4658C172.603 15.7897 178.073 15.3541 181.717 18.4799C182.066 18.7856 182.399 19.1143 182.694 19.4658C183.187 20.1231 183.066 21.0555 182.414 21.5523C182.156 21.751 181.838 21.858 181.52 21.858H181.513Z" fill="white"/>
</g>
<g id="Group_4">
<path id="Vector_21" d="M9.67492 15.3923C10.1371 15.3923 10.5159 15.5834 10.7962 15.9732C11.069 16.3553 11.1371 16.768 10.9856 17.2113C10.6068 18.3347 9.94009 19.2519 8.97033 19.955C7.99299 20.681 6.90201 21.0479 5.68223 21.0479H5.59131C4.04575 21.0479 2.7199 20.4976 1.62892 19.3894C0.537932 18.2812 -0.0151367 16.9514 -0.0151367 15.3923V11.464C-0.0151367 9.91252 0.530355 8.5827 1.62892 7.48216C2.72748 6.38161 4.04575 5.8237 5.59131 5.8237H5.68223C6.89443 5.8237 7.99299 6.1829 8.97033 6.90132C9.94009 7.60444 10.6068 8.5292 10.9856 9.66032C11.1371 10.0959 11.069 10.5087 10.7962 10.8984C10.5083 11.2806 10.1371 11.464 9.67492 11.464C9.01579 11.464 8.57636 11.1583 8.3718 10.5545C8.1824 9.98131 7.84146 9.50746 7.34901 9.14826C6.85655 8.78905 6.30348 8.61327 5.6898 8.61327H5.59889C4.81095 8.61327 4.13666 8.88841 3.5836 9.44632C3.03053 10.0042 2.75778 10.6768 2.75778 11.464V15.3923C2.75778 16.1872 3.03053 16.8673 3.5836 17.4253C4.13666 17.9832 4.80338 18.2583 5.59889 18.2583H5.6898C6.30348 18.2583 6.85655 18.0749 7.34901 17.708C7.84146 17.3488 8.1824 16.8903 8.3718 16.3171C8.57636 15.698 9.01579 15.3923 9.67492 15.3923Z" fill="white"/>
<path id="Vector_22" d="M20.3045 5.77786C22.0015 5.77786 23.4486 6.38163 24.6532 7.59682C25.8579 8.812 26.4564 10.2717 26.4564 11.9837V14.8344C26.4564 16.5464 25.8579 18.0061 24.6532 19.2213C23.4486 20.4365 22.0015 21.0403 20.3045 21.0403H20.1984C18.5013 21.0403 17.0542 20.4365 15.8496 19.2213C14.645 18.0061 14.0464 16.5464 14.0464 14.8344V11.9837C14.0464 10.2717 14.645 8.812 15.8496 7.59682C17.0542 6.38163 18.5013 5.77786 20.1984 5.77786H20.3045ZM23.6911 11.9837C23.6911 11.036 23.3577 10.2335 22.6834 9.56862C22.0243 8.90371 21.2288 8.56743 20.3045 8.56743H20.1984C19.2589 8.56743 18.4634 8.90371 17.8043 9.56862C17.1451 10.2335 16.8118 11.0437 16.8118 11.9837V14.8344C16.8118 15.7821 17.1451 16.5846 17.8043 17.2495C18.4634 17.9144 19.2665 18.2507 20.1984 18.2507H20.3045C21.2288 18.2507 22.0243 17.9144 22.6834 17.2495C23.3577 16.5846 23.6911 15.7745 23.6911 14.8344V11.9837Z" fill="white"/>
<path id="Vector_23" d="M45.4956 5.77785C47.1927 5.77785 48.6397 6.38162 49.8444 7.5968C51.049 8.81198 51.6475 10.2717 51.6475 11.9837V19.6416C51.6475 20.0314 51.5112 20.36 51.2308 20.6275C50.9657 20.9027 50.6399 21.0479 50.2535 21.0479C49.8671 21.0479 49.5413 20.9103 49.2762 20.6275C49.011 20.36 48.8746 20.0314 48.8746 19.6416V11.9837C48.8746 11.036 48.5413 10.2335 47.8821 9.56861C47.223 8.90369 46.4199 8.56742 45.488 8.56742H45.3819C44.4425 8.56742 43.647 8.90369 42.9878 9.56861C42.3287 10.2335 41.9954 11.0436 41.9954 11.9837V19.6416C41.9954 20.0314 41.859 20.36 41.5787 20.6428C41.2983 20.9256 40.9877 21.0479 40.6013 21.0479C40.2149 21.0479 39.8891 20.9103 39.624 20.6428C39.3588 20.3677 39.2224 20.0314 39.2224 19.6416V11.9837C39.2224 11.036 38.8891 10.2335 38.2299 9.56861C37.5708 8.90369 36.7677 8.56742 35.8358 8.56742H35.7298C34.7903 8.56742 33.9948 8.90369 33.3357 9.56861C32.6765 10.2335 32.3432 11.0436 32.3432 11.9837V19.6416C32.3432 20.0467 32.1992 20.3906 31.9113 20.6581C31.6234 20.9332 31.2825 21.0632 30.8885 21.0479C30.5097 21.025 30.1991 20.8721 29.9415 20.5817C29.6915 20.2913 29.5703 19.955 29.5703 19.5652V7.34459C29.5703 6.90896 29.7369 6.54975 30.0703 6.26698C30.4036 5.99184 30.79 5.89249 31.2219 5.96891C31.7143 6.06827 32.0553 6.36633 32.2447 6.8631L32.3356 6.80196C33.3584 6.11412 34.4873 5.7702 35.7222 5.7702H35.8283C37.7678 5.7702 39.3588 6.53447 40.5937 8.05536H40.6089L40.624 8.04007C40.624 8.04007 40.6316 8.01714 40.6543 8.0095C40.6619 8.00186 40.6695 7.98657 40.6695 7.97893C40.6771 7.97893 40.6847 7.97893 40.6847 7.96365L40.715 7.93308C41.9499 6.48861 43.503 5.7702 45.3744 5.7702H45.4804L45.4956 5.77785Z" fill="white"/>
<path id="Vector_24" d="M56.163 26.9098C55.7766 26.9098 55.4508 26.7722 55.1705 26.5048C54.9053 26.2296 54.7689 25.8933 54.7689 25.5036V7.19175C54.7689 6.81726 54.9053 6.48862 55.1705 6.20584C55.4432 5.93835 55.7766 5.80078 56.163 5.80078C56.8751 5.80078 57.3145 6.15234 57.4964 6.86311C58.5343 6.15999 59.6783 5.80078 60.9284 5.80078H61.0345C62.7316 5.80078 64.1787 6.40455 65.3833 7.61974C66.5879 8.83492 67.1864 10.2947 67.1864 12.0066V14.8573C67.1864 16.5693 66.5879 18.029 65.3833 19.2442C64.1787 20.4594 62.7316 21.0632 61.0345 21.0632H60.9284C59.6935 21.0632 58.5646 20.7193 57.5418 20.0314V25.4959C57.5418 25.8857 57.4055 26.2143 57.1403 26.4971C56.8675 26.7646 56.5418 26.9022 56.163 26.9022V26.9098ZM57.5418 14.865C57.5418 15.8127 57.8752 16.6151 58.5343 17.2801C59.1935 17.945 59.9966 18.2812 60.9284 18.2812H61.0345C61.9588 18.2812 62.7543 17.945 63.4135 17.2801C64.0877 16.6151 64.4211 15.805 64.4211 14.865V12.0143C64.4211 11.0666 64.0877 10.2641 63.4135 9.59918C62.7543 8.93427 61.9588 8.598 61.0345 8.598H60.9284C59.989 8.598 59.1935 8.93427 58.5343 9.59918C57.8752 10.2641 57.5418 11.0742 57.5418 12.0143V14.865Z" fill="white"/>
<path id="Vector_25" d="M80.748 5.77786C81.1344 5.77786 81.4601 5.91543 81.7253 6.18292C81.9981 6.45806 82.142 6.78669 82.142 7.16883V19.6417C82.142 20.0314 82.0056 20.3601 81.7253 20.6428C81.445 20.9256 81.1344 21.0479 80.748 21.0479C80.0282 21.0479 79.5812 20.6963 79.4145 19.9856C78.3766 20.6887 77.2326 21.0479 75.9825 21.0479H75.8764C74.1793 21.0479 72.7323 20.4441 71.5276 19.2289C70.323 18.0138 69.7245 16.554 69.7245 14.8421V11.9913C69.7245 10.2794 70.323 8.81964 71.5276 7.60446C72.7323 6.38928 74.1793 5.78551 75.8764 5.78551H75.9825C77.225 5.78551 78.369 6.13707 79.4145 6.84784C79.5812 6.14471 80.0282 5.78551 80.748 5.78551V5.77786ZM79.3691 11.9837C79.3691 11.036 79.0357 10.2335 78.3614 9.56862C77.7023 8.90371 76.9068 8.56743 75.9825 8.56743H75.8764C74.937 8.56743 74.1415 8.90371 73.4823 9.56862C72.8232 10.2335 72.4898 11.0437 72.4898 11.9837V14.8344C72.4898 15.7821 72.8232 16.5846 73.4823 17.2495C74.1415 17.9144 74.9445 18.2507 75.8764 18.2507H75.9825C76.9068 18.2507 77.7023 17.9144 78.3614 17.2495C79.0357 16.5846 79.3691 15.7745 79.3691 14.8344V11.9837Z" fill="white"/>
<path id="Vector_26" d="M91.7261 5.82371C92.1125 5.82371 92.4382 5.96127 92.7034 6.24405C92.9761 6.51154 93.1201 6.84018 93.1201 7.22996C93.1201 7.61973 92.9837 7.94837 92.7034 8.21586C92.4382 8.48335 92.1125 8.62092 91.7261 8.62092H91.7109C90.7715 8.62092 89.9759 8.9572 89.3168 9.63739C88.6577 10.3023 88.3243 11.1048 88.3243 12.0372V19.6493C88.3243 20.0391 88.1879 20.3677 87.9228 20.6505C87.65 20.918 87.3242 21.0555 86.9454 21.0555C86.5666 21.0555 86.2333 20.918 85.9529 20.6505C85.6878 20.3753 85.5514 20.0391 85.5514 19.6493V7.19174C85.5514 6.80197 85.6878 6.47333 85.9529 6.20584C86.2181 5.93835 86.559 5.78549 86.9454 5.78549C87.2712 5.78549 87.5591 5.89249 87.8015 6.09884C88.0516 6.29755 88.2107 6.5574 88.2864 6.87839C89.3092 6.17527 90.4532 5.81606 91.7033 5.81606H91.7185L91.7261 5.82371Z" fill="white"/>
<path id="Vector_27" d="M105.772 5.77786C106.159 5.77786 106.485 5.91543 106.75 6.18292C107.023 6.45806 107.166 6.78669 107.166 7.16883V19.6417C107.166 20.0314 107.03 20.3601 106.75 20.6428C106.469 20.9256 106.159 21.0479 105.772 21.0479C105.053 21.0479 104.606 20.6963 104.439 19.9856C103.401 20.6887 102.257 21.0479 101.007 21.0479H100.901C99.2038 21.0479 97.7567 20.4441 96.5521 19.2289C95.3475 18.0138 94.749 16.554 94.749 14.8421V11.9913C94.749 10.2794 95.3475 8.81964 96.5521 7.60446C97.7567 6.38928 99.2038 5.78551 100.901 5.78551H101.007C102.249 5.78551 103.394 6.13707 104.439 6.84784C104.606 6.14471 105.053 5.78551 105.772 5.78551V5.77786ZM104.394 11.9837C104.394 11.036 104.06 10.2335 103.386 9.56862C102.727 8.90371 101.931 8.56743 101.007 8.56743H100.901C99.9614 8.56743 99.1659 8.90371 98.5068 9.56862C97.8477 10.2335 97.5143 11.0437 97.5143 11.9837V14.8344C97.5143 15.7821 97.8477 16.5846 98.5068 17.2495C99.1659 17.9144 99.969 18.2507 100.901 18.2507H101.007C101.931 18.2507 102.727 17.9144 103.386 17.2495C104.06 16.5846 104.394 15.7745 104.394 14.8344V11.9837Z" fill="white"/>
<path id="Vector_28" d="M116.463 18.2583C116.849 18.2583 117.175 18.3959 117.44 18.6634C117.713 18.9385 117.857 19.2672 117.857 19.6493C117.857 20.0314 117.72 20.3677 117.44 20.6505C117.16 20.9333 116.849 21.0555 116.463 21.0555H116.447C114.75 21.0555 113.303 20.4518 112.099 19.2366C110.894 18.0214 110.295 16.5617 110.295 14.8497V1.39096C110.295 1.01647 110.432 0.68784 110.697 0.405061C110.97 0.137568 111.303 0 111.69 0C112.076 0 112.387 0.137568 112.667 0.405061C112.932 0.680197 113.068 1.00883 113.068 1.39096V6.01478H115.303C115.69 6.01478 116.016 6.15234 116.281 6.41984C116.553 6.68733 116.697 7.01596 116.697 7.40574C116.697 7.79552 116.561 8.12415 116.281 8.39164C116.016 8.66678 115.69 8.81199 115.303 8.81199H113.068V14.8421C113.068 15.7897 113.402 16.5922 114.061 17.2571C114.72 17.922 115.523 18.2583 116.455 18.2583H116.47H116.463Z" fill="white"/>
<path id="Vector_29" d="M132.805 12.0296C132.805 12.534 132.676 13.0078 132.418 13.4358C131.888 14.3606 131.092 14.8268 130.039 14.8268L123.16 14.8421C123.16 15.7898 123.493 16.5922 124.152 17.2571C124.812 17.9221 125.615 18.2583 126.547 18.2583H126.653C127.797 18.2583 128.706 17.7845 129.388 16.8368C129.782 16.2865 130.297 16.1337 130.941 16.363C131.388 16.5158 131.676 16.8139 131.812 17.2571C131.948 17.7157 131.88 18.1361 131.608 18.5105C130.373 20.1996 128.721 21.0479 126.653 21.0479H126.547C124.857 21.0479 123.418 20.4441 122.213 19.2442C121.016 18.052 120.41 16.5999 120.395 14.9032V12.0372C120.395 10.3253 120.993 8.8655 122.198 7.6656C123.402 6.45042 124.85 5.84665 126.547 5.84665H126.653C128.372 5.84665 129.827 6.4657 131.032 7.69617C131.6 8.28466 132.039 8.95721 132.35 9.71384C132.517 10.1189 132.638 10.5469 132.706 10.9825C132.774 11.3341 132.812 11.6856 132.812 12.0448L132.805 12.0296ZM123.16 12.0448H130.024C130.017 11.1124 129.683 10.3023 129.032 9.62977C128.357 8.96486 127.569 8.62858 126.653 8.62858H126.547C125.607 8.62858 124.812 8.96486 124.152 9.62977C123.493 10.2947 123.16 11.0972 123.16 12.0296V12.0448Z" fill="white"/>
<path id="Vector_30" d="M146.654 5.77786C147.04 5.77786 147.366 5.91543 147.631 6.18292C147.904 6.45806 148.048 6.78669 148.048 7.16883V19.6417C148.048 20.0314 147.912 20.3601 147.631 20.6428C147.351 20.9256 147.04 21.0479 146.654 21.0479C145.934 21.0479 145.487 20.6963 145.321 19.9856C144.283 20.6887 143.139 21.0479 141.889 21.0479H141.782C140.085 21.0479 138.638 20.4441 137.434 19.2289C136.229 18.0138 135.631 16.554 135.631 14.8421V7.16883C135.631 6.79434 135.767 6.4657 136.032 6.18292C136.305 5.91543 136.638 5.77786 137.025 5.77786C137.411 5.77786 137.722 5.91543 138.002 6.18292C138.267 6.45806 138.403 6.78669 138.403 7.16883V14.8421C138.403 15.7898 138.737 16.5922 139.396 17.2571C140.055 17.9221 140.858 18.2583 141.79 18.2583H141.896C142.82 18.2583 143.616 17.9221 144.275 17.2571C144.949 16.5922 145.283 15.7821 145.283 14.8421V7.16883C145.283 6.79434 145.419 6.4657 145.684 6.18292C145.949 5.91543 146.275 5.77786 146.662 5.77786H146.654Z" fill="white"/>
<path id="Vector_31" d="M157.64 5.82371C158.026 5.82371 158.352 5.96127 158.617 6.24405C158.89 6.51154 159.034 6.84018 159.034 7.22996C159.034 7.61973 158.897 7.94837 158.617 8.21586C158.352 8.48335 158.026 8.62092 157.64 8.62092H157.624C156.685 8.62092 155.89 8.9572 155.23 9.63739C154.571 10.3023 154.238 11.1048 154.238 12.0372V19.6493C154.238 20.0391 154.102 20.3677 153.836 20.6505C153.564 20.918 153.238 21.0555 152.859 21.0555C152.48 21.0555 152.147 20.918 151.867 20.6505C151.601 20.3753 151.465 20.0391 151.465 19.6493V7.19174C151.465 6.80197 151.601 6.47333 151.867 6.20584C152.132 5.93835 152.473 5.78549 152.859 5.78549C153.185 5.78549 153.473 5.89249 153.715 6.09884C153.965 6.29755 154.124 6.5574 154.2 6.87839C155.223 6.17527 156.367 5.81606 157.617 5.81606H157.632L157.64 5.82371Z" fill="white"/>
</g>
</g>
</g>
</g>
<defs>
<clipPath id="clip0_76_1231">
<rect width="220" height="45" fill="white"/>
</clipPath>
</defs>
</svg>
